<?xml version="1.0" encoding="UTF-8"?>
<svg width="1200" height="760" xmlns="http://www.w3.org/2000/svg">

<style>
.title{font:700 28px Arial;fill:#1f2937}
.subtitle{font:600 18px Arial;fill:#4b5563}
.box{fill:#f8fafc;stroke:#2563eb;stroke-width:2;rx:12}
.kernel{fill:#eef6ff;stroke:#2563eb;stroke-width:2}
.service{fill:#ecfeff;stroke:#0891b2;stroke-width:2}
.config{fill:#fefce8;stroke:#ca8a04;stroke-width:2}
.flash{fill:#fef2f2;stroke:#dc2626;stroke-width:2}
.text{font:600 17px Arial;fill:#111827}
.small{font:15px Arial;fill:#374151}
.line{stroke:#64748b;stroke-width:2;marker-end:url(#arrow)}
</style>

<defs>
<marker id="arrow" markerWidth="10" markerHeight="10" refX="8" refY="3" orient="auto">
<path d="M0,0 L8,3 L0,6 Z" fill="#64748b"/>
</marker>
</defs>

<text x="600" y="45" text-anchor="middle" class="title">
ASUS DSL-AC750 Firmware Architecture
</text>

<text x="600" y="75" text-anchor="middle" class="subtitle">
Reverse Engineered Configuration Persistence Workflow
</text>

<rect class="box" x="420" y="110" width="360" height="60"/>
<text class="text" x="600" y="148" text-anchor="middle">
Firmware (.trx)
</text>

<line class="line" x1="600" y1="170" x2="600" y2="210"/>

<rect class="kernel" x="420" y="210" width="360" height="60"/>
<text class="text" x="600" y="248" text-anchor="middle">
Linux Kernel
</text>

<line class="line" x1="600" y1="270" x2="600" y2="310"/>

<rect class="box" x="420" y="310" width="360" height="60"/>
<text class="text" x="600" y="348" text-anchor="middle">
SquashFS Root Filesystem
</text>

<line class="line" x1="600" y1="370" x2="350" y2="430"/>
<line class="line" x1="600" y1="370" x2="850" y2="430"/>

<rect class="service" x="180" y="430" width="220" height="60"/>
<text class="text" x="290" y="468" text-anchor="middle">
boa
</text>

<rect class="service" x="700" y="430" width="220" height="60"/>
<text class="text" x="810" y="468" text-anchor="middle">
cfg_manager
</text>

<line class="line" x1="810" y1="490" x2="810" y2="540"/>

<rect class="config" x="700" y="540" width="220" height="60"/>
<text class="text" x="810" y="578" text-anchor="middle">
libtcapi.so
</text>

<line class="line" x1="810" y1="600" x2="810" y2="650"/>

<rect class="config" x="700" y="650" width="220" height="60"/>
<text class="small" x="810" y="675" text-anchor="middle">
tcapi save
</text>
<text class="small" x="810" y="695" text-anchor="middle">
create_romfile()
</text>

<line class="line" x1="510" y1="460" x2="700" y2="460"/>

<text class="small" x="515" y="448">
HTTP / CGI
</text>

<line class="line" x1="920" y1="680" x2="1050" y2="680"/>

<rect class="flash" x="1030" y="620" width="140" height="120"/>

<text class="small" x="1100" y="650" text-anchor="middle">
gzip
</text>

<text class="small" x="1100" y="675" text-anchor="middle">
mtd write
</text>

<text class="small" x="1100" y="700" text-anchor="middle">
Flash
</text>

<text class="small" x="1100" y="720" text-anchor="middle">
romfile
</text>

</svg>
